<svg width="154" height="154" viewBox="0 0 154 154" fill="none" xmlns="http://www.w3.org/2000/svg">
<path d="M57.5805 27.6984L57.3077 3.03151C57.3077 3.03151 50.5926 0.192102 43.3238 0.00814039C36.055 -0.175821 27.9599 3.12749 27.9599 3.12749V27.2425L3.21719 27.6104C3.21719 27.6104 0 33.5692 0 42.4633C0 51.3575 3.12894 57.2282 3.12894 57.2282H82.235C82.235 57.2282 85.2997 50.9895 85.2997 42.7992C85.2997 34.609 81.8659 27.4584 81.8659 27.4584L57.5805 27.6984Z" fill="#55ADEE"/>
<path d="M126.217 57.4041L150.959 57.1321C150.959 57.1321 153.807 50.4375 153.992 43.191C154.177 35.9445 150.863 27.8742 150.863 27.8742H126.674L126.305 3.20733C126.305 3.20733 120.328 0 111.406 0C102.485 0 96.596 3.11935 96.596 3.11935V81.983C96.596 81.983 102.854 85.0383 111.069 85.0383C119.285 85.0383 126.457 81.6151 126.457 81.6151L126.217 57.4041Z" fill="#55ADEE"/>
<path d="M27.7834 96.5879L3.04071 96.8598C3.04071 96.8598 0.192568 103.554 0.00804109 110.801C-0.176486 118.047 3.13698 126.118 3.13698 126.118H27.3261L27.6952 150.785C27.6952 150.785 33.6722 153.992 42.5937 153.992C51.5152 153.992 57.404 150.873 57.404 150.873V72.009C57.404 72.009 51.1462 68.9536 42.9307 68.9536C34.7152 68.9536 27.5427 72.3849 27.5427 72.3849L27.7834 96.5879Z" fill="#55ADEE"/>
<path d="M96.4195 126.294L96.6922 150.961C96.6922 150.961 103.407 153.8 110.676 153.984C117.945 154.168 126.04 150.865 126.04 150.865V126.75L150.783 126.382C150.783 126.382 154 120.423 154 111.529C154 102.635 150.871 96.7639 150.871 96.7639H71.765C71.765 96.7639 68.7003 103.003 68.7003 111.193C68.7003 119.383 72.1341 126.534 72.1341 126.534L96.4195 126.294Z" fill="#55ADEE"/>
</svg>
